<svg width="58" height="978" viewBox="0 0 58 978" fill="none" xmlns="http://www.w3.org/2000/svg">
<path d="M34.4955 0V86.5531C23.123 100.363 16.8481 113.873 16.8481 124.448C16.848 135.023 22.484 151.234 35.3779 161.461C49.0003 149.303 60.9667 117.398 53.9077 124.448C46.8486 131.498 17.7304 135.904 5.37724 124.448C-6.97596 112.991 17.2654 162.437 34.4955 177.324V247.5" stroke="black" stroke-width="3"/>
<path d="M34.4955 246V332.553C23.123 346.363 16.8481 359.873 16.8481 370.448C16.848 381.023 22.484 397.234 35.3779 407.461C49.0003 395.303 60.9667 363.398 53.9077 370.448C46.8486 377.498 17.7304 381.904 5.37724 370.448C-6.97596 358.991 17.2654 408.437 34.4955 423.324V493.5" stroke="black" stroke-width="3"/>
<path d="M34.4955 483V569.553C23.123 583.363 16.8481 596.873 16.8481 607.448C16.848 618.023 22.484 634.234 35.3779 644.461C49.0003 632.303 60.9667 600.398 53.9077 607.448C46.8486 614.498 17.7304 618.904 5.37724 607.448C-6.97596 595.991 17.2654 645.437 34.4955 660.324V730.5" stroke="black" stroke-width="3"/>
<path d="M34.4955 730V816.553C23.123 830.363 16.8481 843.873 16.8481 854.448C16.848 865.023 22.484 881.234 35.3779 891.461C49.0003 879.303 60.9667 847.398 53.9077 854.448C46.8486 861.498 17.7304 865.904 5.37724 854.448C-6.97596 842.991 17.2654 892.437 34.4955 907.324V977.5" stroke="black" stroke-width="3"/>
</svg>
