<svg width="56" height="1091" viewBox="0 0 56 1091" fill="none" xmlns="http://www.w3.org/2000/svg">
<path d="M33.5 0V84.1781C33.5 84.3874 33.43 84.5973 33.3082 84.7675C7.75173 120.462 12.2797 136.528 32.7733 160.649C33.157 161.101 33.8597 161.122 34.2652 160.69C46.3446 147.824 50.4331 139.763 53.1141 127.361C53.2841 126.575 52.4921 125.929 51.7481 126.235C33.0903 133.91 21.8212 133.402 3.30988 126.393C2.46929 126.075 1.65214 126.933 2.02666 127.75C11.6993 148.853 18.3845 160.48 33.2442 177.212C33.407 177.396 33.5 177.635 33.5 177.881V262.647C33.5 262.876 33.4159 263.104 33.273 263.282C4.4601 299.179 14.8898 313.522 32.8786 338.632C33.2131 339.099 33.8749 339.2 34.3107 338.826C47.8985 327.159 56.1531 301.678 52.5 304.5C48.78 307.374 19.9531 314.477 2.57224 304.541C2.52401 304.514 2.45837 304.482 2.40312 304.476C0.0475819 304.227 16.2805 335.745 33.237 354.215C33.4073 354.4 33.5 354.64 33.5 354.892V438.696C33.5 438.894 33.4374 439.094 33.3276 439.258C8.64027 476.287 13.5272 491.915 32.8196 516.149C33.1821 516.604 33.8661 516.658 34.2878 516.257C45.0386 506.034 49.2247 498.472 53.4703 484.3C53.6998 483.534 52.9735 482.826 52.2091 483.06C32.3724 489.147 21.9056 488.311 5.91526 483.132C5.12893 482.877 4.38138 483.626 4.652 484.407C11.9289 505.407 19.002 516.061 33.266 533.219C33.4154 533.398 33.5 533.628 33.5 533.862V619.2C33.5 619.396 33.4391 619.592 33.3314 619.756C11.4151 653.052 13.453 669.228 34.7536 694.133C35.1441 694.589 35.8594 694.602 36.2599 694.154C47.1694 681.955 51.2519 674.766 53.6838 663.091C53.8355 662.363 53.154 661.74 52.4379 661.94C33.7699 667.154 22.8063 668.566 6.22685 662.365C5.39653 662.054 4.57854 662.884 4.92742 663.699C12.3889 681.129 19.7884 691.984 33.3163 710.745C33.4345 710.909 33.5025 711.108 33.5072 711.31L35.492 797.154C35.4972 797.378 35.4228 797.603 35.2889 797.782C12.4872 828.348 14.1324 844.345 34.8212 870.642C35.1816 871.1 35.8674 871.159 36.2901 870.758C46.394 861.169 50.2003 853.735 53.5784 839.341C53.7616 838.561 52.988 837.897 52.2385 838.182C32.6682 845.634 22.0887 845.143 6.40557 838.542C5.55977 838.186 4.69951 839.051 5.08071 839.886C14.6306 860.798 21.7667 871.733 35.2852 889.222C35.4227 889.4 35.4988 889.622 35.4965 889.847L33.5 1090.5" stroke="black" stroke-width="3"/>
</svg>
