<svg width="60" height="491" viewBox="0 0 60 491" fill="none" xmlns="http://www.w3.org/2000/svg">
<path d="M36.4955 0V86.5531C25.123 100.363 18.8482 113.873 18.8481 124.448M18.8481 124.448C18.848 135.023 24.484 151.234 37.3779 161.461M18.8481 124.448C18.8481 126.257 19.0131 128.232 19.3512 130.313M37.3779 161.461C51.0003 149.303 62.9667 117.398 55.9077 124.448M37.3779 161.461C26.6902 152.984 20.9892 140.395 19.3512 130.313M55.9077 124.448C48.8487 131.498 19.7304 135.904 7.37724 124.448M55.9077 124.448C50.6355 129.713 33.0585 133.504 19.3512 130.313M7.37724 124.448C-4.97596 112.991 19.2654 162.437 36.4955 177.324V287C20.9608 309.221 16.1637 319.641 20.5 331.5C19.7611 347.093 34.2361 358.133 36.4955 364C38.7549 369.867 65.7914 316.092 56.5 327C47.2086 337.908 7.14733 331.789 3 325C-1.14733 318.211 21.0591 360.76 36.4955 380.5V490.5M7.37724 124.448C10.5042 127.348 14.7055 129.232 19.3512 130.313" stroke="black" stroke-width="3"/>
</svg>
