<svg width="58" height="495" viewBox="0 0 58 495" fill="none" xmlns="http://www.w3.org/2000/svg">
<path d="M34.4955 0V86.5531C23.123 100.363 16.8481 113.873 16.8481 124.448M16.8481 124.448C16.848 135.023 22.484 151.234 35.3779 161.461M16.8481 124.448C16.8481 126.257 17.0131 128.232 17.3512 130.313M35.3779 161.461C49.0003 149.303 60.9667 117.398 53.9077 124.448M35.3779 161.461C24.6902 152.984 18.9892 140.395 17.3512 130.313M53.9077 124.448C46.8487 131.498 17.7304 135.904 5.37724 124.448M53.9077 124.448C48.6355 129.713 31.0585 133.504 17.3512 130.313M5.37724 124.448C-6.97596 112.991 17.2654 162.437 34.4955 177.324V288.553C23.123 302.363 16.8481 315.873 16.8481 326.448M5.37724 124.448C8.50423 127.348 12.7055 129.232 17.3512 130.313M16.8481 326.448C16.848 337.023 22.484 353.234 35.3779 363.461M16.8481 326.448C16.8481 328.257 17.0131 330.232 17.3512 332.313M35.3779 363.461C49.0003 351.303 60.9667 319.398 53.9077 326.448M35.3779 363.461C24.6902 354.984 18.9892 342.395 17.3512 332.313M53.9077 326.448C46.8487 333.498 17.7304 337.904 5.37724 326.448M53.9077 326.448C48.6355 331.713 31.0585 335.504 17.3512 332.313M5.37724 326.448C-6.97596 314.991 17.2654 364.437 34.4955 379.324V494.5M5.37724 326.448C8.50423 329.348 12.7055 331.232 17.3512 332.313" stroke="black" stroke-width="3"/>
</svg>
