<svg width="58" height="978" viewBox="0 0 58 978" fill="none" xmlns="http://www.w3.org/2000/svg">
<path fill-rule="evenodd" clip-rule="evenodd" d="M32.9955 0V86.0168C21.7525 99.7867 15.3481 113.467 15.3481 124.448C15.3481 125.663 15.4192 126.948 15.5637 128.287C11.9903 127.213 8.82308 125.598 6.39724 123.348C5.59014 122.6 4.8492 122.019 4.18212 121.665C3.61845 121.366 2.59047 120.955 1.61654 121.526C0.641218 122.098 0.512787 123.188 0.501014 123.767C0.486865 124.463 0.623262 125.281 0.836256 126.143C1.68734 129.588 4.1727 135.296 7.5126 141.701C14.0654 154.266 24.264 170.184 32.9955 178.002V246V247.5V332.017C21.7525 345.787 15.3481 359.467 15.3481 370.448C15.3481 371.663 15.4192 372.948 15.5637 374.287C11.9903 373.213 8.82308 371.598 6.39724 369.348C5.59014 368.6 4.8492 368.019 4.18212 367.665C3.61845 367.366 2.59047 366.955 1.61654 367.526C0.641218 368.098 0.512787 369.188 0.501014 369.767C0.486865 370.463 0.623262 371.281 0.836256 372.143C1.68734 375.588 4.1727 381.296 7.5126 387.701C14.0654 400.266 24.264 416.184 32.9955 424.002V483V493.5V569.017C21.7525 582.787 15.3481 596.467 15.3481 607.448C15.3481 608.663 15.4192 609.948 15.5637 611.287C11.9903 610.214 8.82308 608.598 6.39724 606.348C5.59014 605.6 4.8492 605.019 4.18212 604.665C3.61845 604.366 2.59047 603.955 1.61654 604.526C0.641218 605.098 0.512787 606.188 0.501014 606.767C0.486865 607.463 0.623262 608.281 0.836256 609.143C1.68734 612.588 4.1727 618.296 7.5126 624.701C14.0654 637.266 24.264 653.184 32.9955 661.002V730V730.5V816.017C21.7525 829.787 15.3481 843.467 15.3481 854.448C15.3481 855.663 15.4192 856.948 15.5637 858.287C11.9903 857.214 8.82308 855.598 6.39724 853.348C5.59014 852.6 4.8492 852.019 4.18212 851.665C3.61845 851.366 2.59047 850.955 1.61654 851.526C0.641218 852.098 0.512787 853.188 0.501014 853.767C0.486865 854.463 0.623262 855.281 0.836256 856.143C1.68734 859.588 4.1727 865.296 7.5126 871.701C14.0654 884.266 24.264 900.184 32.9955 908.002V977.5H35.9955V907.324V906.638L35.4762 906.189C27.0897 898.943 16.8294 883.079 10.1726 870.314C6.84258 863.928 4.50696 858.493 3.74869 855.423C3.70335 855.24 3.66512 855.07 3.6333 854.914C3.84599 855.088 4.08683 855.297 4.35725 855.548C7.48888 858.452 11.57 860.374 16.0418 861.536C17.936 871.777 23.7808 884.177 34.4457 892.637L35.4348 893.421L36.3767 892.581C43.428 886.287 49.93 875.037 53.77 866.358C55.6867 862.027 57.0144 858.171 57.3881 855.779C57.4821 855.177 57.5303 854.583 57.4792 854.058C57.4366 853.621 57.2852 852.788 56.5473 852.28C55.7004 851.697 54.801 851.993 54.3337 852.231C53.828 852.487 53.3294 852.906 52.8477 853.387C51.3385 854.894 48.4706 856.402 44.6359 857.602C40.8476 858.787 36.2828 859.621 31.5428 859.89C27.1732 860.138 22.7465 859.903 18.6809 859.069C18.4575 857.438 18.3481 855.887 18.3481 854.448C18.3481 844.389 24.3636 831.217 35.6534 817.507L35.9955 817.091V816.553V730.5V730V660.324V659.638L35.4762 659.189C27.0897 651.943 16.8294 636.079 10.1726 623.314C6.84258 616.928 4.50696 611.493 3.74869 608.423C3.70335 608.24 3.66512 608.07 3.6333 607.914C3.84599 608.088 4.08683 608.297 4.35725 608.548C7.48888 611.452 11.57 613.374 16.0418 614.536C17.936 624.777 23.7808 637.177 34.4457 645.637L35.4348 646.421L36.3767 645.581C43.428 639.287 49.93 628.037 53.77 619.358C55.6867 615.027 57.0144 611.171 57.3881 608.779C57.4821 608.177 57.5303 607.583 57.4792 607.058C57.4366 606.621 57.2852 605.788 56.5473 605.28C55.7004 604.697 54.801 604.993 54.3337 605.231C53.828 605.487 53.3294 605.906 52.8477 606.387C51.3385 607.894 48.4706 609.402 44.6359 610.602C40.8476 611.787 36.2828 612.621 31.5428 612.89C27.1732 613.138 22.7465 612.903 18.6809 612.069C18.4575 610.438 18.3481 608.887 18.3481 607.448C18.3481 597.389 24.3636 584.217 35.6534 570.507L35.9955 570.091V569.553V493.5V483V423.324V422.638L35.4762 422.189C27.0897 414.943 16.8294 399.079 10.1726 386.314C6.84258 379.928 4.50696 374.493 3.74869 371.423C3.70335 371.24 3.66512 371.07 3.6333 370.914C3.84599 371.088 4.08683 371.297 4.35725 371.548C7.48888 374.452 11.57 376.374 16.0418 377.536C17.936 387.777 23.7808 400.177 34.4457 408.637L35.4348 409.421L36.3767 408.581C43.428 402.287 49.93 391.037 53.77 382.358C55.6867 378.027 57.0144 374.171 57.3881 371.779C57.4821 371.177 57.5303 370.582 57.4792 370.058C57.4366 369.621 57.2852 368.788 56.5473 368.28C55.7004 367.697 54.801 367.993 54.3337 368.231C53.828 368.487 53.3294 368.906 52.8477 369.387C51.3385 370.894 48.4706 372.402 44.6359 373.602C40.8476 374.787 36.2828 375.621 31.5428 375.89C27.1732 376.138 22.7465 375.903 18.6809 375.069C18.4575 373.438 18.3481 371.887 18.3481 370.448C18.3481 360.389 24.3636 347.217 35.6534 333.507L35.9955 333.091V332.553V247.5V246V177.324V176.638L35.4762 176.189C27.0897 168.943 16.8294 153.079 10.1726 140.314C6.84258 133.928 4.50696 128.493 3.74869 125.423C3.70335 125.24 3.66512 125.07 3.6333 124.915C3.84599 125.088 4.08683 125.297 4.35725 125.548C7.48888 128.452 11.57 130.374 16.0418 131.536C17.936 141.777 23.7808 154.177 34.4457 162.637L35.4348 163.421L36.3767 162.581C43.428 156.287 49.93 145.037 53.77 136.358C55.6867 132.027 57.0144 128.171 57.3881 125.779C57.4821 125.177 57.5303 124.582 57.4792 124.058C57.4366 123.621 57.2852 122.788 56.5473 122.28C55.7004 121.697 54.801 121.993 54.3337 122.231C53.828 122.487 53.3294 122.906 52.8477 123.387C51.3385 124.894 48.4706 126.402 44.6359 127.602C40.8476 128.787 36.2828 129.621 31.5428 129.89C27.1732 130.138 22.7465 129.903 18.6809 129.069C18.4575 127.438 18.3481 125.887 18.3481 124.448C18.3481 114.389 24.3636 101.217 35.6534 87.5067L35.9955 87.0913V86.5531V0H32.9955ZM3.5177 123.649C3.51856 123.65 3.5167 123.664 3.50952 123.687C3.51325 123.659 3.51684 123.647 3.5177 123.649ZM2.60475 124.235C2.58227 124.231 2.56988 124.227 2.5693 124.226C2.56873 124.224 2.57998 124.226 2.60475 124.235ZM35.3151 159.472C26.3165 151.884 21.1704 141.243 19.2379 132.228C23.3219 132.95 27.6086 133.118 31.7128 132.886C36.6788 132.604 41.4892 131.73 45.532 130.465C49.0949 129.35 52.1989 127.888 54.262 126.154C53.7972 128.225 52.6794 131.409 51.0266 135.145C47.4227 143.289 41.5434 153.456 35.3151 159.472ZM54.4817 124.279L54.4841 124.289L54.4876 124.301C54.4837 124.276 54.4805 124.265 54.4799 124.266C54.4795 124.267 54.48 124.271 54.4817 124.279ZM3.5177 369.649C3.51856 369.65 3.5167 369.664 3.50952 369.687C3.51325 369.659 3.51684 369.647 3.5177 369.649ZM2.60475 370.235C2.58227 370.231 2.56988 370.227 2.5693 370.226C2.56873 370.224 2.57998 370.226 2.60475 370.235ZM35.3151 405.472C26.3165 397.884 21.1704 387.243 19.2379 378.228C23.3219 378.95 27.6086 379.118 31.7128 378.886C36.6788 378.604 41.4892 377.73 45.532 376.465C49.0949 375.35 52.1989 373.888 54.262 372.154C53.7972 374.225 52.6794 377.409 51.0266 381.145C47.4227 389.289 41.5434 399.456 35.3151 405.472ZM54.4812 370.277C54.4824 370.283 54.4844 370.291 54.4876 370.301C54.4837 370.276 54.4805 370.265 54.4799 370.266C54.4795 370.267 54.4799 370.271 54.4812 370.277ZM3.5177 606.649C3.51856 606.65 3.5167 606.664 3.50952 606.687C3.51325 606.659 3.51684 606.647 3.5177 606.649ZM2.60475 607.235C2.58227 607.231 2.56988 607.227 2.5693 607.226C2.56873 607.224 2.57998 607.226 2.60475 607.235ZM19.2379 615.228C21.1704 624.243 26.3165 634.884 35.3151 642.472C41.5434 636.456 47.4227 626.289 51.0266 618.145C52.6794 614.409 53.7972 611.225 54.262 609.154C52.1989 610.888 49.0949 612.35 45.532 613.465C41.4892 614.73 36.6788 615.604 31.7128 615.885C27.6086 616.118 23.3219 615.95 19.2379 615.228ZM54.4876 607.301C54.4811 607.28 54.4792 607.267 54.4799 607.266C54.4801 607.266 54.4805 607.267 54.4812 607.269C54.4817 607.271 54.4823 607.273 54.4829 607.276C54.4842 607.281 54.4858 607.29 54.4876 607.301ZM3.51716 853.656C3.51794 853.652 3.51806 853.649 3.5177 853.649C3.51684 853.647 3.51325 853.659 3.50952 853.687C3.51369 853.674 3.51607 853.663 3.51716 853.656ZM2.60475 854.235C2.58227 854.231 2.56988 854.227 2.5693 854.226C2.56873 854.224 2.57998 854.226 2.60475 854.235ZM35.3151 889.472C26.3165 881.884 21.1704 871.243 19.2379 862.228C23.3219 862.95 27.6086 863.118 31.7128 862.885C36.6788 862.604 41.4892 861.73 45.532 860.465C49.0949 859.35 52.1989 857.888 54.262 856.154C53.7972 858.225 52.6794 861.409 51.0266 865.145C47.4227 873.289 41.5434 883.456 35.3151 889.472ZM54.4817 854.279C54.483 854.285 54.4849 854.292 54.4876 854.301C54.4837 854.276 54.4805 854.265 54.4799 854.266C54.4795 854.267 54.48 854.271 54.4817 854.279Z" fill="black"/>
</svg>
