<svg width="58" height="891" viewBox="0 0 58 891" fill="none" xmlns="http://www.w3.org/2000/svg">
<path d="M33.5 0V84.1781C33.5 84.3874 33.43 84.5973 33.3082 84.7675C7.75173 120.462 12.2797 136.528 32.7733 160.649C33.157 161.101 33.8597 161.122 34.2652 160.69C46.3446 147.824 50.4331 139.763 53.1141 127.361C53.2841 126.575 52.4921 125.929 51.7481 126.235C33.0903 133.91 21.8212 133.402 3.30988 126.393C2.46929 126.075 1.65214 126.933 2.02666 127.75C11.6993 148.853 18.3845 160.48 33.2442 177.212C33.407 177.396 33.5 177.635 33.5 177.881V262.178C33.5 262.387 33.4321 262.594 33.3103 262.765C19.2704 282.373 14.3091 296.059 16.0859 308.409M16.0859 308.409C17.5436 318.543 23.9228 327.778 33.1592 338.649C33.5429 339.101 34.2456 339.122 34.6511 338.69C46.7305 325.824 50.819 317.763 53.5 305.361C53.67 304.575 52.878 303.929 52.134 304.235C38.1492 309.988 27.9296 311.143 16.0859 308.409ZM16.0859 308.409C12.1283 307.496 8.33211 306.148 3.69576 304.393C2.85518 304.075 2.03803 304.933 2.41254 305.75C12.0852 326.853 18.8832 338.48 33.7442 355.213C33.9071 355.396 33.9999 355.635 33.9999 355.881V440.178C33.9999 440.387 33.932 440.594 33.8102 440.765C19.7703 460.373 14.809 474.059 16.5858 486.409M16.5858 486.409C18.0435 496.543 24.4228 505.778 33.6592 516.649C34.0428 517.101 34.7455 517.122 35.1511 516.69C47.2304 503.824 51.3189 495.763 53.9999 483.361C54.1699 482.575 53.3779 481.929 52.634 482.235C38.6492 487.988 28.4295 489.143 16.5858 486.409ZM16.5858 486.409C12.6282 485.496 8.83201 484.148 4.19567 482.393C3.35508 482.075 2.53793 482.933 2.91245 483.75C12.5852 504.853 19.2705 516.48 34.1306 533.213C34.2932 533.396 34.386 533.635 34.3863 533.88L34.5 618.178C34.5 618.387 34.4321 618.594 34.3103 618.765C20.2704 638.373 15.3091 652.059 17.0859 664.409M17.0859 664.409C18.5436 674.543 24.9228 683.778 34.1592 694.649C34.5429 695.101 35.2456 695.122 35.6511 694.69C47.7305 681.824 51.819 673.763 54.5 661.361C54.67 660.575 53.878 659.929 53.134 660.235C39.1493 665.988 28.9296 667.143 17.0859 664.409ZM17.0859 664.409C13.1283 663.496 9.3321 662.148 4.69576 660.393C3.85517 660.075 3.03803 660.933 3.41254 661.75C13.0861 682.855 19.7717 694.482 34.6343 711.217C34.7947 711.398 34.8873 711.633 34.8899 711.875L35.7832 796.178C35.7832 796.387 35.7154 796.594 35.5935 796.765C21.5536 816.373 16.5923 830.059 18.3691 842.409M18.3691 842.409C19.8268 852.543 26.2061 861.778 35.4425 872.649C35.8261 873.101 36.5288 873.122 36.9344 872.69C49.0137 859.824 53.1022 851.763 55.7832 839.361C55.9532 838.575 55.1613 837.929 54.4173 838.235C40.4325 843.988 30.2128 845.143 18.3691 842.409ZM18.3691 842.409C14.4115 841.496 10.6153 840.148 5.97898 838.393C5.13839 838.075 4.32124 838.933 4.69576 839.75C14.4237 860.973 21.13 872.613 36.1691 889.5" stroke="black" stroke-width="3"/>
</svg>
