<svg width="58" height="978" viewBox="0 0 58 978" fill="none" xmlns="http://www.w3.org/2000/svg">
<path d="M34.4956 0V86.5531C23.1231 100.363 16.8482 113.873 16.8482 124.448C16.8482 126.257 17.0132 128.232 17.3513 130.313M17.3513 130.313C18.9893 140.395 24.6903 152.984 35.378 161.461C49.0004 149.303 60.9668 117.398 53.9078 124.448C48.6356 129.713 31.0586 133.504 17.3513 130.313ZM17.3513 130.313C12.7056 129.232 8.50434 127.348 5.37735 124.448C-6.97585 112.991 17.2655 162.437 34.4956 177.324L34.4956 263.877C23.1231 277.688 16.8482 291.197 16.8482 301.772C16.8481 303.582 17.0131 305.556 17.3513 307.637M17.3513 307.637C18.9893 317.72 24.6902 330.308 35.378 338.786C49.0004 326.628 60.9668 294.722 53.9078 301.772C48.6356 307.038 31.0586 310.829 17.3513 307.637ZM17.3513 307.637C12.7055 306.556 8.50431 304.672 5.37733 301.772C-6.97588 290.316 17.2654 339.761 34.4956 354.649L34.4955 441.202C23.123 455.012 16.8481 468.521 16.848 479.097C16.848 480.906 17.013 482.88 17.3511 484.962M17.3511 484.962C18.9891 495.044 24.6901 507.632 35.3778 516.11C49.0003 503.952 60.9667 472.046 53.9076 479.097C48.6355 484.362 31.0584 488.153 17.3511 484.962ZM17.3511 484.962C12.7054 483.88 8.5042 481.997 5.37721 479.097C-6.97599 467.64 17.2653 517.086 34.4955 531.973L34.4955 618.526C23.123 632.336 16.8481 645.846 16.8481 656.421C16.8481 658.23 17.0131 660.205 17.3512 662.286M17.3512 662.286C18.9892 672.368 24.6902 684.957 35.3779 693.434C49.0003 681.276 60.9667 649.371 53.9077 656.421C48.6355 661.686 31.0585 665.477 17.3512 662.286ZM17.3512 662.286C12.7054 661.204 8.50423 659.321 5.37724 656.421C-6.97596 644.964 17.2654 694.41 34.4955 709.297V795.85C23.123 809.661 16.8481 823.17 16.8481 833.745C16.8481 835.555 17.0131 837.529 17.3512 839.61M17.3512 839.61C18.9892 849.693 24.6902 862.281 35.3779 870.759C49.0003 858.6 60.9667 826.695 53.9077 833.745C48.6355 839.011 31.0585 842.802 17.3512 839.61ZM17.3512 839.61C12.7054 838.529 8.50423 836.645 5.37725 833.745C-6.97596 822.289 17.2654 871.734 34.4955 886.622L34.4955 978" stroke="black" stroke-width="3"/>
</svg>
