<svg width="61" height="782" viewBox="0 0 61 782" fill="none" xmlns="http://www.w3.org/2000/svg">
<path d="M36.5 0V84.1781C36.5 84.3874 36.43 84.5973 36.3082 84.7675C10.7517 120.462 15.2797 136.528 35.7733 160.649C36.157 161.101 36.8597 161.122 37.2652 160.69C49.3446 147.824 53.4331 139.763 56.1141 127.361C56.2841 126.575 55.4921 125.929 54.7481 126.235C36.0903 133.91 24.8212 133.402 6.30988 126.393C5.46929 126.075 4.65214 126.933 5.02666 127.75C14.6993 148.853 21.3845 160.48 36.2442 177.212C36.407 177.396 36.5 177.635 36.5 177.881V255.896C36.5 255.965 36.4928 256.034 36.4786 256.102L22.2335 323.889C22.1096 324.478 22.5313 325.043 23.1317 325.091L51.2936 327.362C52.0564 327.424 52.6028 326.641 52.2817 325.946L6.66744 227.27C6.1891 226.236 4.62949 226.679 4.76704 227.811L26 402.5V480.547C26 481.362 26.9232 481.835 27.5846 481.358L58.7989 458.865C59.3736 458.451 59.3474 457.587 58.7487 457.209L18.1114 431.519C17.4299 431.088 16.545 431.599 16.5779 432.405L21.9439 563.629C21.9716 564.307 22.6514 564.761 23.2879 564.527L44.4957 556.736C45.2915 556.444 45.3853 555.356 44.6511 554.932L3.39166 531.093C2.65042 530.665 1.74878 531.305 1.90908 532.146L33.9823 700.407C33.9941 700.469 34 700.532 34 700.594V781.5" stroke="black" stroke-width="3"/>
</svg>
